<svg width="36" height="34" viewBox="0 0 36 34" fill="none" xmlns="http://www.w3.org/2000/svg">
<path d="M13.7925 32.4034C14.6066 32.4034 15.2666 31.7552 15.2666 30.9556C15.2666 30.156 14.6066 29.5078 13.7925 29.5078C12.9783 29.5078 12.3184 30.156 12.3184 30.9556C12.3184 31.7552 12.9783 32.4034 13.7925 32.4034Z" fill="#BFC2C8" stroke="#BFC2C8" stroke-width="3" stroke-linecap="round" stroke-linejoin="round"/>
<path d="M30.0073 32.4034C30.8214 32.4034 31.4814 31.7552 31.4814 30.9556C31.4814 30.156 30.8214 29.5078 30.0073 29.5078C29.1932 29.5078 28.5332 30.156 28.5332 30.9556C28.5332 31.7552 29.1932 32.4034 30.0073 32.4034Z" fill="#BFC2C8" stroke="#BFC2C8" stroke-width="3" stroke-linecap="round" stroke-linejoin="round"/>
<path d="M2 2H7.89638L11.847 21.3857C11.9818 22.0522 12.351 22.651 12.8899 23.0771C13.4289 23.5033 14.1034 23.7296 14.7951 23.7166H29.1234C29.8152 23.7296 30.4896 23.5033 31.0286 23.0771C31.5675 22.651 31.9367 22.0522 32.0715 21.3857L34.4301 9.23887H9.37048" stroke="#BFC2C8" stroke-width="3" stroke-linecap="round" stroke-linejoin="round"/>
</svg>
