<svg width="100" height="100" viewBox="0 0 100 100" fill="none" xmlns="http://www.w3.org/2000/svg">
<circle cx="50" cy="50" r="48.5" stroke="#8F5C44" stroke-width="3"/>
<path d="M66.504 62.112C66.504 53.544 59.88 50.664 52.536 48.072V27.624C57.144 28.2 60.384 30.648 62.04 34.752L65.28 32.952C63.048 27.552 58.224 24.528 52.536 23.88V17.4H49.152V23.88C41.52 24.384 35.472 29.424 35.472 36.912C35.472 45.48 41.808 48.144 49.152 50.736V72.12C42.456 71.76 38.064 68.736 36.408 63.696L33.096 65.568C35.328 71.76 41.232 75.432 49.152 75.792V82.2H52.536V75.72C60.744 74.928 66.504 69.672 66.504 62.112ZM39.288 36.912C39.288 31.872 43.248 28.056 49.152 27.552V46.848C43.464 44.76 39.288 42.6 39.288 36.912ZM52.536 71.976V51.888C58.44 53.976 62.616 56.352 62.616 62.112C62.616 67.296 59.016 71.256 52.536 71.976Z" fill="#965335" fill-opacity="0.8"/>
</svg>
