<svg width="40" height="40" viewBox="0 0 40 40" fill="none" xmlns="http://www.w3.org/2000/svg">
<rect x="0.629291" y="0.629291" width="38.7414" height="38.7414" rx="0.629291" stroke="#272727" stroke-width="1.25858"/>
<path d="M26.9918 28.0187L25.9625 18.3023C25.9344 18.037 25.6721 17.8337 25.3578 17.8337H23.2352V17.0223C23.2352 15.5099 21.7838 14.2795 19.9997 14.2795C18.2158 14.2795 16.7645 15.5099 16.7645 17.0223V17.8337H14.6404C14.3262 17.8337 14.0638 18.037 14.0358 18.3023L13.0024 28.0569C12.9872 28.2008 13.044 28.3435 13.1591 28.4501C13.2741 28.5568 13.4367 28.6175 13.6071 28.6175H26.3912C26.3917 28.6175 26.3923 28.6175 26.3929 28.6175C26.7282 28.6175 27 28.3871 27 28.1029C26.9999 28.0742 26.9972 28.0461 26.9918 28.0187ZM17.9787 17.0223C17.9787 16.0775 18.8854 15.3088 19.9998 15.3088C21.1144 15.3088 22.0211 16.0775 22.0211 17.0223V17.8337H17.9787V17.0223ZM14.2712 27.5883L15.1955 18.863H16.7645V19.7833C16.7645 20.0675 17.0362 20.2979 17.3716 20.2979C17.707 20.2979 17.9787 20.0675 17.9787 19.7833V18.863H22.0211V19.7833C22.0211 20.0675 22.2928 20.2979 22.6282 20.2979C22.9636 20.2979 23.2353 20.0675 23.2353 19.7833V18.863H24.8029L25.7271 27.5883H14.2712Z" fill="#272727"/>
</svg>
