<svg width="12" height="14" viewBox="0 0 12 14" fill="none" xmlns="http://www.w3.org/2000/svg">
<path d="M11.9929 13.4153L11.1107 3.92796C11.0866 3.66887 10.8618 3.47042 10.5924 3.47042H8.77304V2.67807C8.77304 1.20138 7.52895 0 5.99976 0C4.47067 0 3.22671 1.20138 3.22671 2.67807V3.47042H1.4061C1.13674 3.47042 0.911867 3.66887 0.887786 3.92796L0.00208197 13.4526C-0.0109667 13.5931 0.0377423 13.7325 0.136342 13.8366C0.234937 13.9407 0.374336 14 0.520393 14H11.4782C11.4786 14 11.4791 14 11.4796 14C11.767 14 12 13.775 12 13.4975C11.9999 13.4695 11.9976 13.442 11.9929 13.4153ZM4.26749 2.67807C4.26749 1.75554 5.0446 1.00501 5.99986 1.00501C6.95517 1.00501 7.73233 1.75554 7.73233 2.67807V3.47042H4.26749V2.67807ZM1.08963 12.9951L1.88188 4.47542H3.22671V5.374C3.22671 5.65156 3.45964 5.87652 3.74708 5.87652C4.03457 5.87652 4.26749 5.65156 4.26749 5.374V4.47542H7.73233V5.374C7.73233 5.65156 7.96525 5.87652 8.25274 5.87652C8.54022 5.87652 8.77314 5.65156 8.77314 5.374V4.47542H10.1167L10.9089 12.9951H1.08963Z" fill="white"/>
</svg>
