<svg width="14" height="17" viewBox="0 0 14 17" fill="none" xmlns="http://www.w3.org/2000/svg">
<path d="M13.9918 15.8223L12.9625 4.63274C12.9344 4.32716 12.6721 4.0931 12.3578 4.0931H10.2352V3.15859C10.2352 1.41694 8.78378 0 6.99972 0C5.21578 0 3.7645 1.41694 3.7645 3.15859V4.0931H1.64045C1.3262 4.0931 1.06385 4.32716 1.03575 4.63274L0.00242897 15.8664C-0.0127944 16.0321 0.0440327 16.1964 0.159066 16.3192C0.274093 16.442 0.436725 16.512 0.607125 16.512H13.3912C13.3917 16.512 13.3923 16.512 13.3929 16.512C13.7282 16.512 14 16.2466 14 15.9193C13.9999 15.8863 13.9972 15.8539 13.9918 15.8223ZM4.97874 3.15859C4.97874 2.07053 5.88536 1.18533 6.99984 1.18533C8.11437 1.18533 9.02105 2.07053 9.02105 3.15859V4.0931H4.97874V3.15859ZM1.27124 15.3267L2.19552 5.27842H3.7645V6.33824C3.7645 6.6656 4.03625 6.93092 4.3716 6.93092C4.707 6.93092 4.97874 6.6656 4.97874 6.33824V5.27842H9.02105V6.33824C9.02105 6.6656 9.29279 6.93092 9.62819 6.93092C9.96359 6.93092 10.2353 6.6656 10.2353 6.33824V5.27842H11.8029L12.7271 15.3267H1.27124Z" fill="white"/>
</svg>
