<svg width="30" height="30" viewBox="0 0 30 30" fill="none" xmlns="http://www.w3.org/2000/svg">
<path d="M15 0C6.72965 0 0 6.7282 0 15C0 23.2718 6.72965 30 15 30C23.2703 30 30 23.2718 30 15C30 6.7282 23.2703 0 15 0ZM15 29.0009C7.28064 29.0009 1.00094 22.7198 1.00094 15C1.00094 7.28015 7.28064 0.999127 15 0.999127C22.7194 0.999127 28.9991 7.28015 28.9991 15C28.9991 22.7198 22.7194 29.0009 15 29.0009Z" fill="white"/>
<path d="M18.2714 6.58084H15.7756C12.597 6.54903 12.191 8.51638 12.191 10.6456V12.1938H10.7878C10.7244 12.1854 10.6599 12.1916 10.5992 12.2121C10.5386 12.2326 10.4836 12.2668 10.4383 12.3121C10.3931 12.3573 10.3589 12.4124 10.3384 12.473C10.3179 12.5336 10.3116 12.5981 10.3201 12.6616V15.4681C10.3116 15.5315 10.3179 15.596 10.3384 15.6566C10.3589 15.7172 10.3931 15.7723 10.4383 15.8175C10.4836 15.8628 10.5386 15.897 10.5992 15.9175C10.6599 15.938 10.7244 15.9443 10.7878 15.9358H12.191V22.952C12.1832 23.0156 12.19 23.0801 12.2109 23.1406C12.2319 23.201 12.2664 23.256 12.3118 23.3011C12.3572 23.3462 12.4123 23.3804 12.4729 23.4009C12.5335 23.4215 12.598 23.428 12.6615 23.4198H15.5193C15.7953 23.4516 16.0188 23.228 15.9309 22.952L15.9328 15.9358H18.2714C18.3348 15.9443 18.3993 15.938 18.4599 15.9175C18.5206 15.897 18.5756 15.8628 18.6209 15.8175C18.6661 15.7723 18.7003 15.7172 18.7208 15.6566C18.7413 15.596 18.7476 15.5315 18.7391 15.4681V12.6616C18.7476 12.5981 18.7413 12.5336 18.7208 12.473C18.7003 12.4124 18.6661 12.3573 18.6209 12.3121C18.5756 12.2668 18.5206 12.2326 18.4599 12.2121C18.3993 12.1916 18.3348 12.1854 18.2714 12.1938H15.93L15.9328 10.7906C16.0235 10.1928 16.0235 10.2901 16.5782 10.3228H18.2518C18.3818 10.2938 18.5202 10.3097 18.6175 10.2152C18.7148 10.1208 18.7709 9.99166 18.7382 9.85508V7.04859C18.7468 6.98522 18.7407 6.9207 18.7203 6.86008C18.6999 6.79946 18.6658 6.74437 18.6206 6.6991C18.5755 6.65383 18.5204 6.6196 18.4599 6.59909C18.3993 6.57858 18.3348 6.57233 18.2714 6.58084ZM17.7709 9.33494L16.5979 9.29004C15.1451 9.29004 15.0235 10.0787 15.0235 10.886L15.0198 12.6597C15.0197 12.7254 15.0325 12.7904 15.0575 12.8512C15.0826 12.9119 15.1194 12.9671 15.1658 13.0135C15.2122 13.06 15.2673 13.0969 15.3279 13.1221C15.3886 13.1472 15.4536 13.1602 15.5193 13.1602H17.8037V14.9676H15.5212C15.3886 14.9676 15.2615 15.0202 15.1676 15.1138C15.0738 15.2075 15.021 15.3346 15.0207 15.4671L15.0198 22.4843H13.1264V15.4681C13.1264 15.1921 12.9384 14.9685 12.6615 14.9685H11.2555V13.1611H12.6615C12.7271 13.1612 12.7922 13.1484 12.8528 13.1233C12.9135 13.0983 12.9686 13.0616 13.0151 13.0152C13.1086 12.9207 13.1255 12.7935 13.1255 12.6606V10.6446C13.1255 8.54725 13.5492 7.54814 15.7747 7.54814H17.77V9.33494H17.7709Z" fill="white"/>
</svg>
