<svg width="14" height="15" viewBox="0 0 14 15" fill="none" xmlns="http://www.w3.org/2000/svg">
<path d="M13.6613 3.21782C13.4441 2.64284 13.1309 2.12179 12.7392 1.68385C12.3472 1.2446 11.8851 0.895536 11.3779 0.655638C10.852 0.405891 10.288 0.278056 9.71847 0.279554C8.91954 0.279554 8.14005 0.529659 7.46266 1.00208C7.3006 1.11509 7.14665 1.23922 7.0008 1.37446C6.85495 1.23922 6.701 1.11509 6.53894 1.00208C5.86155 0.529659 5.08206 0.279554 4.28313 0.279554C3.70783 0.279554 3.15036 0.405533 2.62368 0.655638C2.11483 0.89648 1.65621 1.24292 1.26241 1.68385C0.870233 2.12129 0.556949 2.64247 0.340317 3.21782C0.115059 3.81622 0 4.45168 0 5.10565C0 5.72258 0.110198 6.36544 0.328973 7.01942C0.512096 7.56595 0.774626 8.13285 1.11008 8.70531C1.64162 9.61125 2.37249 10.5561 3.28 11.5139C4.78388 13.1016 6.27317 14.1984 6.33637 14.2428L6.72045 14.5244C6.8906 14.6485 7.10938 14.6485 7.27954 14.5244L7.66361 14.2428C7.72681 14.1965 9.21448 13.1016 10.72 11.5139C11.6275 10.5561 12.3584 9.61125 12.8899 8.70531C13.2254 8.13285 13.4895 7.56595 13.671 7.01942C13.8898 6.36544 14 5.72258 14 5.10565C14.0016 4.45168 13.8865 3.81622 13.6613 3.21782ZM7.0008 13.059C7.0008 13.059 1.23162 8.83314 1.23162 5.10565C1.23162 3.21782 2.59775 1.68755 4.28313 1.68755C5.46776 1.68755 6.49519 2.44342 7.0008 3.54759C7.50641 2.44342 8.53385 1.68755 9.71847 1.68755C11.4039 1.68755 12.77 3.21782 12.77 5.10565C12.77 8.83314 7.0008 13.059 7.0008 13.059Z" fill="#272727"/>
</svg>
