<svg width="32" height="36" viewBox="0 0 32 36" fill="none" xmlns="http://www.w3.org/2000/svg">
<path d="M31.7 16.1991V16.2008V32.4001C31.7 33.2765 31.3561 34.1162 30.7451 34.7348C30.1343 35.3532 29.3066 35.7 28.4444 35.7H3.55555C2.69333 35.7 1.86567 35.3532 1.25484 34.7348C0.643885 34.1162 0.3 33.2765 0.3 32.4001V16.2014C0.300892 16.0027 0.340699 15.8061 0.417026 15.6232C0.493427 15.4402 0.604849 15.2745 0.744652 15.1358L0.744663 15.1358L0.746774 15.1336L14.9684 0.734855C14.9685 0.73474 14.9686 0.734625 14.9687 0.73451C15.2458 0.45577 15.6198 0.3 16.0089 0.3C16.3979 0.3 16.7718 0.455736 17.049 0.734421C17.0491 0.734565 17.0493 0.73471 17.0494 0.734855L31.2701 15.1328C31.2703 15.133 31.2705 15.1331 31.2706 15.1333C31.4075 15.2732 31.5161 15.4392 31.5898 15.622C31.6636 15.805 31.7011 16.0012 31.7 16.1991ZM12.1444 32.4001V32.7001H12.4444H19.5555H19.8555V32.4001V23.4005V23.1005H19.5555H12.4444H12.1444V23.4005V32.4001ZM3.34211 16.7279L3.25555 16.8156V16.9388V32.4001V32.7001H3.55555H8.88888H9.18888V32.4001V23.4005C9.18888 22.5241 9.53277 21.6844 10.1437 21.0658C10.7545 20.4474 11.5822 20.1006 12.4444 20.1006H19.5555C20.4178 20.1006 21.2454 20.4474 21.8563 21.0658C22.4672 21.6844 22.8111 22.5241 22.8111 23.4005V32.4001V32.7001H23.1111H28.4444H28.7444V32.4001V16.9388V16.8156L28.6579 16.7279L16.2134 4.12844L16 3.91234L15.7865 4.12844L3.34211 16.7279Z" fill="#BFC2C8" stroke="white" stroke-width="0.6"/>
</svg>
