<svg width="30" height="30" viewBox="0 0 30 30" fill="none" xmlns="http://www.w3.org/2000/svg">
<path d="M15 8.125C13.6403 8.125 12.311 8.52821 11.1805 9.28365C10.0499 10.0391 9.16868 11.1128 8.64833 12.3691C8.12798 13.6253 7.99183 15.0076 8.2571 16.3412C8.52238 17.6749 9.17715 18.8999 10.1386 19.8614C11.1001 20.8228 12.3251 21.4776 13.6588 21.7429C14.9924 22.0082 16.3747 21.872 17.6309 21.3517C18.8872 20.8313 19.9609 19.9501 20.7164 18.8195C21.4718 17.689 21.875 16.3597 21.875 15C21.875 13.1766 21.1507 11.428 19.8614 10.1386C18.572 8.84933 16.8234 8.125 15 8.125ZM15 20.625C13.8875 20.625 12.7999 20.2951 11.8749 19.677C10.9499 19.0589 10.2289 18.1804 9.80318 17.1526C9.37743 16.1248 9.26604 14.9938 9.48308 13.9026C9.70012 12.8115 10.2359 11.8092 11.0225 11.0225C11.8092 10.2359 12.8115 9.70012 13.9026 9.48308C14.9938 9.26604 16.1248 9.37743 17.1526 9.80318C18.1804 10.2289 19.0589 10.9499 19.677 11.8749C20.2951 12.7999 20.625 13.8875 20.625 15C20.625 16.4918 20.0324 17.9226 18.9775 18.9775C17.9226 20.0324 16.4918 20.625 15 20.625ZM21.875 0H8.125C5.97012 0 3.90349 0.856024 2.37976 2.37976C0.856024 3.90349 0 5.97012 0 8.125V21.875C0 22.942 0.210159 23.9985 0.618479 24.9843C1.0268 25.9701 1.62528 26.8658 2.37976 27.6202C3.90349 29.144 5.97012 30 8.125 30H21.875C22.942 30 23.9985 29.7898 24.9843 29.3815C25.9701 28.9732 26.8658 28.3747 27.6202 27.6202C28.3747 26.8658 28.9732 25.9701 29.3815 24.9843C29.7898 23.9985 30 22.942 30 21.875V8.125C30 7.05801 29.7898 6.00147 29.3815 5.0157C28.9732 4.02993 28.3747 3.13423 27.6202 2.37976C26.8658 1.62528 25.9701 1.0268 24.9843 0.618479C23.9985 0.210159 22.942 0 21.875 0ZM28.75 21.875C28.75 23.6984 28.0257 25.447 26.7364 26.7364C25.447 28.0257 23.6984 28.75 21.875 28.75H8.125C6.30164 28.75 4.55295 28.0257 3.26364 26.7364C1.97433 25.447 1.25 23.6984 1.25 21.875V8.125C1.25 6.30164 1.97433 4.55295 3.26364 3.26364C4.55295 1.97433 6.30164 1.25 8.125 1.25H21.875C23.6984 1.25 25.447 1.97433 26.7364 3.26364C28.0257 4.55295 28.75 6.30164 28.75 8.125V21.875ZM24.375 6.875C24.375 7.12223 24.3017 7.3639 24.1643 7.56946C24.027 7.77502 23.8318 7.93524 23.6034 8.02985C23.3749 8.12446 23.1236 8.14921 22.8811 8.10098C22.6387 8.05275 22.4159 7.9337 22.2411 7.75888C22.0663 7.58407 21.9473 7.36134 21.899 7.11886C21.8508 6.87639 21.8755 6.62505 21.9701 6.39665C22.0648 6.16824 22.225 5.97301 22.4305 5.83566C22.6361 5.69831 22.8778 5.625 23.125 5.625C23.4565 5.625 23.7745 5.7567 24.0089 5.99112C24.2433 6.22554 24.375 6.54348 24.375 6.875Z" fill="white"/>
</svg>
