<svg width="67" height="85" viewBox="0 0 67 85" fill="none" xmlns="http://www.w3.org/2000/svg">
<path d="M33.45 83.3634C27.7506 78.4819 22.4677 73.1303 17.6566 67.3646C10.4368 58.7059 1.86329 45.8107 1.86329 33.5227C1.86015 27.2472 3.71115 21.1117 7.18201 15.8928C10.6529 10.674 15.5876 6.60632 21.3616 4.20463C27.1357 1.80294 33.4895 1.17519 39.619 2.40082C45.7484 3.62646 51.3781 6.65038 55.7953 11.0899C58.7363 14.0299 61.0674 17.5263 62.6537 21.3769C64.2399 25.2275 65.0499 29.3557 65.0367 33.5227C65.0367 45.8107 56.4632 58.7059 49.2434 67.3646C44.4323 73.1303 39.1494 78.4819 33.45 83.3634ZM33.45 19.9298C29.8597 19.9298 26.4165 21.3619 23.8778 23.9111C21.3391 26.4603 19.9128 29.9177 19.9128 33.5227C19.9128 37.1278 21.3391 40.5852 23.8778 43.1344C26.4165 45.6836 29.8597 47.1157 33.45 47.1157C37.0403 47.1157 40.4835 45.6836 43.0222 43.1344C45.5609 40.5852 46.9872 37.1278 46.9872 33.5227C46.9872 29.9177 45.5609 26.4603 43.0222 23.9111C40.4835 21.3619 37.0403 19.9298 33.45 19.9298Z" fill="#848484"/>
<path d="M33.45 84.0218L33.1247 83.7432C27.4041 78.8435 22.1017 73.472 17.2727 67.6849L17.2726 67.6848C13.6489 63.3388 9.67703 57.9201 6.60917 52.0358C3.54348 46.1556 1.36334 39.778 1.36329 33.523L33.45 84.0218ZM33.45 84.0218L33.7753 83.7432M33.45 84.0218L33.7753 83.7432M33.7753 83.7432C39.4958 78.8435 44.7983 73.472 49.6273 67.6849L49.6274 67.6848L33.7753 83.7432ZM6.76567 15.616C3.24018 20.917 1.36015 27.1488 1.36329 33.5227L65.5367 33.5243C65.5367 33.5239 65.5367 33.5235 65.5367 33.5231C65.55 29.2907 64.7272 25.0976 63.116 21.1864C61.5047 17.2751 59.1368 13.7234 56.1493 10.7368C51.6623 6.22736 45.9437 3.1556 39.717 1.91053C33.4901 0.66541 27.0353 1.30316 21.1696 3.74297C15.3039 6.18278 10.2912 10.3149 6.76567 15.616ZM24.2321 24.2639C26.6772 21.8088 29.993 20.4298 33.45 20.4298C36.907 20.4298 40.2228 21.8088 42.6679 24.2639C45.1131 26.7192 46.4872 30.0496 46.4872 33.5227C46.4872 36.9959 45.1131 40.3263 42.6679 42.7816C40.2228 45.2367 36.907 46.6157 33.45 46.6157C29.993 46.6157 26.6772 45.2367 24.2321 42.7816C21.7869 40.3263 20.4128 36.9959 20.4128 33.5227C20.4128 30.0496 21.7869 26.7192 24.2321 24.2639Z" stroke="#272727" stroke-opacity="0.7"/>
</svg>
