<svg width="37" height="35" viewBox="0 0 37 35" fill="none" xmlns="http://www.w3.org/2000/svg">
<path d="M32.3591 4.7476C31.5667 3.87653 30.6259 3.18553 29.5903 2.71409C28.5548 2.24265 27.4449 2 26.324 2C25.2031 2 24.0932 2.24265 23.0576 2.71409C22.0221 3.18553 21.0813 3.87653 20.2889 4.7476L18.6443 6.55452L16.9998 4.7476C15.3992 2.98892 13.2283 2.00091 10.9647 2.00091C8.70104 2.00091 6.53014 2.98892 4.92952 4.7476C3.3289 6.50627 2.42969 8.89154 2.42969 11.3787C2.42969 13.8658 3.3289 16.2511 4.92952 18.0098L6.57406 19.8167L18.6443 33.0788L30.7146 19.8167L32.3591 18.0098C33.1519 17.1391 33.7808 16.1053 34.2099 14.9676C34.6389 13.8298 34.8598 12.6103 34.8598 11.3787C34.8598 10.1471 34.6389 8.92757 34.2099 7.78979C33.7808 6.652 33.1519 5.61825 32.3591 4.7476Z" stroke="#BFC2C8" stroke-width="3" stroke-linecap="round" stroke-linejoin="round"/>
</svg>
