<svg width="30" height="30" viewBox="0 0 30 30" fill="none" xmlns="http://www.w3.org/2000/svg">
<path d="M15 0C6.72965 0 0 6.7282 0 15C0 23.2718 6.72965 30 15 30C23.2703 30 30 23.2718 30 15C30 6.7282 23.2703 0 15 0ZM15 29.0009C7.28064 29.0009 1.00094 22.7198 1.00094 15C1.00094 7.28015 7.28064 0.999127 15 0.999127C22.7194 0.999127 28.9991 7.28015 28.9991 15C28.9991 22.7198 22.7194 29.0009 15 29.0009Z" fill="white"/>
<path d="M23.2271 10.3653C23.3309 10.1732 23.4164 9.97183 23.4825 9.76377C23.5131 9.66726 23.5137 9.56374 23.4843 9.46687C23.4548 9.37 23.3967 9.28435 23.3175 9.22121C23.2384 9.15807 23.142 9.12043 23.041 9.11324C22.94 9.10605 22.8392 9.12966 22.7519 9.18095C22.2726 9.46573 21.7537 9.6779 21.2122 9.81055C20.5548 9.21723 19.701 8.88831 18.8155 8.88721C18.3344 8.88758 17.8584 8.98509 17.4159 9.1739C16.9734 9.36271 16.5736 9.63893 16.2404 9.986C15.9072 10.3331 15.6476 10.7438 15.477 11.1937C15.3064 11.6436 15.2284 12.1232 15.2477 12.6039C13.1439 12.3391 11.2227 11.2745 9.88286 9.63093C9.83152 9.56866 9.76591 9.51971 9.69161 9.48823C9.61731 9.45674 9.5365 9.44366 9.45606 9.45009C9.37562 9.45652 9.29792 9.48227 9.22956 9.52515C9.1612 9.56804 9.1042 9.62679 9.0634 9.69641C8.75659 10.223 8.58983 10.8195 8.57902 11.4289C8.56821 12.0383 8.71372 12.6402 9.00166 13.1774C8.93104 13.1893 8.8632 13.2141 8.80147 13.2504C8.72584 13.2986 8.66356 13.3651 8.6204 13.4438C8.57724 13.5224 8.55458 13.6106 8.55451 13.7004C8.55451 14.7621 9.02692 15.7369 9.78838 16.3993L9.75564 16.432C9.69815 16.497 9.6586 16.5759 9.64088 16.6609C9.62317 16.7459 9.6279 16.834 9.65461 16.9166C9.81339 17.412 10.0785 17.8667 10.4314 18.2488C10.7843 18.631 11.2165 18.9314 11.6976 19.1291C10.7094 19.6112 9.60349 19.7992 8.51148 19.6707C8.39923 19.6593 8.28636 19.6854 8.19054 19.745C8.09473 19.8046 8.02139 19.8943 7.98201 20C7.9442 20.1065 7.94349 20.2227 7.98 20.3297C8.01651 20.4367 8.08809 20.5282 8.18313 20.5894C9.66771 21.5422 11.3948 22.0485 13.1588 22.0478C18.9399 22.0478 22.3955 17.3516 22.3955 12.8116L22.3946 12.6582C22.9548 12.2208 23.4415 11.6965 23.8361 11.1053C23.8959 11.0159 23.9253 10.9096 23.9199 10.8023C23.9146 10.6949 23.8748 10.5921 23.8065 10.5091C23.7382 10.426 23.6449 10.3672 23.5406 10.3413C23.4362 10.3154 23.3263 10.3238 23.2271 10.3653ZM21.5948 12.0071C21.5269 12.0559 21.4723 12.121 21.436 12.1963C21.3998 12.2716 21.3829 12.3549 21.3871 12.4384C21.3927 12.5618 21.3955 12.6872 21.3955 12.8107C21.3955 16.8595 18.3151 21.0478 13.1598 21.0478C12.2403 21.0482 11.3273 20.8939 10.4591 20.5912C11.4989 20.392 12.4758 19.946 13.3076 19.2909C13.3885 19.2271 13.4478 19.1398 13.4773 19.0409C13.5068 18.9421 13.505 18.8366 13.4722 18.7389C13.4395 18.6411 13.3773 18.5558 13.2943 18.4947C13.2112 18.4336 13.1113 18.3997 13.0082 18.3975C12.6049 18.3898 12.209 18.2874 11.8525 18.0986C11.496 17.9098 11.1888 17.6398 10.9558 17.3104C11.1925 17.2945 11.4245 17.2552 11.6499 17.1944C11.759 17.1652 11.855 17.0999 11.9222 17.0091C11.9895 16.9184 12.0239 16.8075 12.02 16.6946C12.0161 16.5817 11.9741 16.4735 11.9007 16.3876C11.8274 16.3016 11.7271 16.2431 11.6163 16.2215C11.1607 16.1289 10.7389 15.9141 10.396 15.6002C10.0531 15.2863 9.80203 14.885 9.66957 14.4394C9.9184 14.5021 10.1738 14.5386 10.4292 14.547C10.649 14.546 10.8529 14.4113 10.9212 14.1999C10.9895 13.9885 10.9091 13.7555 10.7229 13.6321C10.2827 13.3388 9.94383 12.9168 9.75247 12.4237C9.5611 11.9306 9.5266 11.3905 9.65367 10.877C11.2786 12.5444 13.4727 13.5373 15.7977 13.6573C15.9624 13.6583 16.1064 13.5993 16.2065 13.4786C16.3066 13.358 16.345 13.198 16.3094 13.0446C16.1815 12.4936 16.2387 11.9157 16.4723 11.4005C16.7058 10.8853 17.1026 10.4615 17.6013 10.1945C18.1 9.92758 18.6728 9.83245 19.231 9.92387C19.7892 10.0153 20.3017 10.2881 20.6892 10.7002C20.7473 10.7622 20.8202 10.8083 20.9011 10.8344C20.9819 10.8604 21.068 10.8654 21.1514 10.8489C21.3057 10.8181 21.4582 10.7825 21.6088 10.7414C21.5409 10.7922 21.4703 10.8394 21.3974 10.8826C21.3004 10.9421 21.2265 11.0327 21.188 11.1398C21.1494 11.2468 21.1484 11.3638 21.1853 11.4714C21.2221 11.5791 21.2945 11.6709 21.3905 11.7319C21.4865 11.7929 21.6005 11.8194 21.7136 11.8069L21.8838 11.7854C21.7901 11.8626 21.6937 11.9366 21.5948 12.0071Z" fill="white"/>
</svg>
