<?xml version="1.0" encoding="utf-8"?><svg viewBox="0 0 110 100" xmlns="http://www.w3.org/2000/svg" xmlns:xlink="http://www.w3.org/1999/xlink"><style>:root>svg{display:none}:root>svg:target{display:block}</style><svg viewBox="0 0 15 8" id="arrow-down" xmlns="http://www.w3.org/2000/svg"><path d="M.317.613l7.5 6.136M14.683.613l-7.5 6.136"/></svg><svg viewBox="0 0 21 38" id="arrow-left" xmlns="http://www.w3.org/2000/svg"><path opacity=".4" d="M19.745 1.253L2 19l17.746 17.747"/></svg><svg viewBox="0 0 21 38" id="arrow-next" xmlns="http://www.w3.org/2000/svg"><path d="M1.747 1l17.747 17.746L1.747 36.493"/></svg><svg viewBox="0 0 21 38" id="arrow-prev" xmlns="http://www.w3.org/2000/svg"><path opacity=".4" d="M19.745 1.253L2 19l17.746 17.747"/></svg><svg viewBox="0 0 21 38" id="arrow-right" xmlns="http://www.w3.org/2000/svg"><path d="M1.747 1l17.747 17.746L1.747 36.493"/></svg><svg viewBox="0 0 40 40" id="basket" xmlns="http://www.w3.org/2000/svg"><rect x=".5" y=".5" width="38.016" height="38.016" rx=".759"/><path d="M26.992 27.332l-1.03-10.843a.595.595 0 00-.604-.523h-2.123v-.905C23.235 13.373 21.784 12 20 12c-1.784 0-3.235 1.373-3.235 3.06v.906H14.64a.595.595 0 00-.604.523l-1.034 10.885a.56.56 0 00.157.44.623.623 0 00.448.186h12.786c.335 0 .607-.257.607-.574a.551.551 0 00-.008-.094zM17.979 15.06c0-1.055.906-1.912 2.02-1.912 1.115 0 2.022.857 2.022 1.912v.905H17.98v-.905zM14.27 26.85l.924-9.736h1.57v1.027c0 .317.271.574.607.574.335 0 .607-.257.607-.574v-1.027h4.042v1.027c0 .317.272.574.607.574.336 0 .607-.257.607-.574v-1.027h1.568l.924 9.737H14.271z"/></svg><svg viewBox="0 0 14 17" id="cart" xmlns="http://www.w3.org/2000/svg"><path d="M13.992 15.822l-1.03-11.19a.602.602 0 00-.604-.539h-2.123V3.16C10.235 1.417 8.784 0 7 0 5.216 0 3.764 1.417 3.764 3.159v.934H1.64a.602.602 0 00-.604.54L.002 15.866a.584.584 0 00.157.453.614.614 0 00.448.193h12.786a.6.6 0 00.599-.69zM4.979 3.16c0-1.088.906-1.974 2.02-1.974 1.115 0 2.022.886 2.022 1.974v.934H4.98V3.16zM1.27 15.327l.925-10.049h1.568v1.06a.6.6 0 00.608.593.6.6 0 00.607-.593v-1.06H9.02v1.06a.6.6 0 00.607.593.6.6 0 00.607-.593v-1.06h1.568l.924 10.049H1.271z"/></svg><svg viewBox="0 0 12 20" id="cart-arrow" xmlns="http://www.w3.org/2000/svg"><path d="M1.17.83L10.337 10 1.17 19.17"/></svg><svg viewBox="0 0 20 12" id="cart-arrow-down" xmlns="http://www.w3.org/2000/svg"><path d="M19.337 1.17l-9.169 9.168L.998 1.17"/></svg><svg viewBox="0 0 41 41" id="cart-close" xmlns="http://www.w3.org/2000/svg"><g opacity=".8"><path d="M14.035 14.521l12.5 12m-.668-12.162L13.998 26.52"/><circle cx="20.5" cy="20.5" r="20"/></g></svg><svg viewBox="0 0 49 49" id="cart-next" xmlns="http://www.w3.org/2000/svg"><path d="M21.17 14.83L30.337 24l-9.169 9.17"/><circle cx="24.5" cy="24.5" r="24"/></svg><svg viewBox="0 0 42 42" id="cart-prev" xmlns="http://www.w3.org/2000/svg"><path opacity=".4" d="M24.17 11.83L15.002 21l9.17 9.17"/><circle opacity=".4" cx="21" cy="21" r="20.5"/></svg><svg viewBox="0 0 12 14" id="cart-without-rect" xmlns="http://www.w3.org/2000/svg"><path d="M11.993 13.415l-.882-9.487a.514.514 0 00-.519-.458H8.773v-.792C8.773 1.201 7.529 0 6 0 4.47 0 3.227 1.201 3.227 2.678v.792h-1.82a.514.514 0 00-.52.458l-.885 9.525c-.013.14.036.28.134.384A.53.53 0 00.52 14h10.96a.512.512 0 00.513-.585zM4.267 2.678c0-.922.778-1.673 1.733-1.673.955 0 1.732.75 1.732 1.673v.792H4.267v-.792zM1.09 12.995l.792-8.52h1.345v.899c0 .278.233.503.52.503.288 0 .52-.225.52-.503v-.899h3.465v.899c0 .278.233.503.52.503a.512.512 0 00.521-.503v-.899h1.344l.792 8.52h-9.82z"/></svg><svg viewBox="0 0 12 8" id="check" xmlns="http://www.w3.org/2000/svg"><path d="M1.416 4l3.507 3.259 5.972-5.972"/></svg><svg viewBox="0 0 29 18" id="checkmark" xmlns="http://www.w3.org/2000/svg"><path d="M1 6l11.61 10.96L28.284 1.283"/></svg><svg viewBox="0 0 19 18" id="close-btn" xmlns="http://www.w3.org/2000/svg"><path d="M1.002.728l17.47 16.77M17.586.502L.999 17.498" opacity=".7"/></svg><svg viewBox="0 0 23 24" id="column" xmlns="http://www.w3.org/2000/svg"><path d="M0 .715h10v10H0zm13 0h10v10H13zm0 13h10v10H13zm-13 0h10v10H0z"/></svg><svg viewBox="0 0 30 30" id="facebook" xmlns="http://www.w3.org/2000/svg"><path d="M15 0C6.73 0 0 6.728 0 15s6.73 15 15 15 15-6.728 15-15S23.27 0 15 0zm0 29C7.28 29 1 22.72 1 15S7.28 1 15 1s14 6.28 14 14-6.28 14-14 14z"/><path d="M18.271 6.58h-2.495c-3.179-.031-3.585 1.936-3.585 4.066v1.548h-1.403a.418.418 0 00-.468.468v2.806a.416.416 0 00.468.468h1.403v7.016a.42.42 0 00.47.468h2.858c.276.032.5-.192.412-.468l.002-7.016h2.338a.416.416 0 00.468-.468v-2.806a.416.416 0 00-.468-.468H15.93l.003-1.403c.09-.598.09-.5.645-.468h1.674c.13-.03.268-.013.366-.108a.376.376 0 00.12-.36V7.05a.416.416 0 00-.467-.468zm-.5 2.755l-1.173-.045c-1.453 0-1.574.789-1.574 1.596l-.004 1.774a.501.501 0 00.5.5h2.284v1.808H15.52a.5.5 0 00-.5.5l-.001 7.016h-1.894v-7.016c0-.276-.188-.5-.464-.5h-1.407v-1.807h1.406a.498.498 0 00.354-.146c.094-.094.11-.222.11-.354v-2.016c0-2.098.424-3.097 2.65-3.097h1.995v1.787z"/></svg><svg viewBox="0 0 14 15" id="favorites" xmlns="http://www.w3.org/2000/svg"><path d="M13.661 3.218a4.89 4.89 0 00-.922-1.534A4.288 4.288 0 0011.378.656 3.837 3.837 0 009.718.28c-.798 0-1.578.25-2.255.722A4.275 4.275 0 007 1.374a4.321 4.321 0 00-.462-.372A3.932 3.932 0 004.283.28c-.575 0-1.133.126-1.66.376a4.26 4.26 0 00-1.36 1.028A4.861 4.861 0 00.34 3.218 5.34 5.34 0 000 5.106c0 .617.11 1.26.329 1.913.183.547.446 1.114.781 1.686.532.906 1.262 1.851 2.17 2.809a24.918 24.918 0 003.056 2.729l.384.281c.17.125.39.125.56 0l.384-.281a25.247 25.247 0 003.056-2.73c.907-.957 1.638-1.902 2.17-2.808.335-.572.6-1.14.781-1.686A6.038 6.038 0 0014 5.106a5.305 5.305 0 00-.339-1.888zm-6.66 9.841S1.23 8.833 1.23 5.106c0-1.888 1.367-3.418 3.052-3.418 1.185 0 2.212.755 2.718 1.86.505-1.105 1.533-1.86 2.717-1.86 1.686 0 3.052 1.53 3.052 3.418 0 3.727-5.77 7.953-5.77 7.953z"/></svg><svg viewBox="0 0 37 21" id="filters" xmlns="http://www.w3.org/2000/svg"><path d="M35.93 4.143H.501"/><circle r="3.75" transform="matrix(-1 0 0 1 11.537 4.25)"/><path d="M.5 16.643h35.429"/><circle cx="24.893" cy="16.75" r="3.75"/></svg><svg viewBox="0 0 32 36" id="home" xmlns="http://www.w3.org/2000/svg"><path d="M31.7 16.2v16.2c0 .877-.344 1.716-.955 2.335a3.234 3.234 0 01-2.3.965H3.554c-.862 0-1.69-.347-2.3-.965A3.323 3.323 0 01.3 32.4V16.201a1.52 1.52 0 01.445-1.065l.002-.002L14.968.734A1.467 1.467 0 0116.009.3c.39 0 .764.156 1.041.434l14.22 14.4a1.501 1.501 0 01.43 1.066zM12.144 32.4v.3h7.711v-9.6h-7.71v9.3zM3.342 16.728l-.086.088V32.7h5.933v-9.3c0-.876.344-1.716.955-2.334a3.234 3.234 0 012.3-.965h7.111c.863 0 1.69.346 2.301.965.611.618.955 1.458.955 2.335v9.3h5.933V16.815l-.086-.088-12.445-12.6L16 3.912l-.213.216-12.445 12.6z"/></svg><svg viewBox="0 0 30 30" id="inst" xmlns="http://www.w3.org/2000/svg"><path d="M15 8.125a6.875 6.875 0 100 13.75 6.875 6.875 0 000-13.75zm0 12.5a5.625 5.625 0 110-11.25 5.625 5.625 0 010 11.25zM21.875 0H8.125A8.125 8.125 0 000 8.125v13.75A8.125 8.125 0 008.125 30h13.75A8.125 8.125 0 0030 21.875V8.125A8.125 8.125 0 0021.875 0zm6.875 21.875a6.875 6.875 0 01-6.875 6.875H8.125a6.875 6.875 0 01-6.875-6.875V8.125A6.875 6.875 0 018.125 1.25h13.75a6.875 6.875 0 016.875 6.875v13.75zm-4.375-15a1.25 1.25 0 11-2.5 0 1.25 1.25 0 012.5 0z"/></svg><svg viewBox="0 0 67 85" id="marker" xmlns="http://www.w3.org/2000/svg"><path d="M33.45 83.363a134.647 134.647 0 01-15.793-15.998c-7.22-8.66-15.794-21.554-15.794-33.842a31.81 31.81 0 015.319-17.63 31.616 31.616 0 0114.18-11.688A31.467 31.467 0 0139.619 2.4a31.547 31.547 0 0116.176 8.689 31.522 31.522 0 016.859 10.287 31.627 31.627 0 012.383 12.146c0 12.288-8.574 25.183-15.794 33.842A134.647 134.647 0 0133.45 83.363zm0-63.433c-3.59 0-7.034 1.432-9.572 3.981a13.622 13.622 0 00-3.965 9.612c0 3.605 1.426 7.062 3.965 9.611a13.509 13.509 0 009.572 3.982c3.59 0 7.033-1.432 9.572-3.982a13.622 13.622 0 003.965-9.611 13.62 13.62 0 00-3.965-9.612 13.509 13.509 0 00-9.572-3.981z"/><path d="M33.45 84.022l-.325-.279a135.154 135.154 0 01-15.852-16.058c-3.624-4.346-7.596-9.765-10.664-15.65-3.066-5.88-5.246-12.257-5.246-18.512L33.45 84.022zm0 0l.325-.279m-.325.279l.325-.279m0 0a135.162 135.162 0 0015.852-16.058L33.775 83.743zM6.765 15.616a32.31 32.31 0 00-5.402 17.907l64.174.001a32.126 32.126 0 00-2.421-12.338 32.022 32.022 0 00-6.967-10.45 32.047 32.047 0 00-16.432-8.825A31.966 31.966 0 0021.17 3.743 32.115 32.115 0 006.766 15.616zm17.467 8.648a13.01 13.01 0 019.218-3.834 13.01 13.01 0 019.218 3.834 13.121 13.121 0 013.82 9.259c0 3.473-1.375 6.803-3.82 9.259a13.01 13.01 0 01-9.218 3.834 13.01 13.01 0 01-9.218-3.834 13.121 13.121 0 01-3.82-9.26c0-3.472 1.375-6.803 3.82-9.258z"/></svg><svg viewBox="0 0 36 34" id="menu-cart" xmlns="http://www.w3.org/2000/svg"><path d="M13.793 32.403c.814 0 1.474-.648 1.474-1.447 0-.8-.66-1.448-1.474-1.448-.815 0-1.475.648-1.475 1.448 0 .8.66 1.447 1.475 1.447zm16.214 0c.814 0 1.474-.648 1.474-1.447 0-.8-.66-1.448-1.474-1.448s-1.474.648-1.474 1.448c0 .8.66 1.447 1.474 1.447zM2 2h5.896l3.951 19.386a2.888 2.888 0 001.043 1.691 2.983 2.983 0 001.905.64h14.328a2.982 2.982 0 001.906-.64 2.888 2.888 0 001.043-1.691L34.43 9.239H9.37"/></svg><svg viewBox="0 0 37 35" id="menu-favorites" xmlns="http://www.w3.org/2000/svg"><path d="M32.36 4.748a8.527 8.527 0 00-2.77-2.034A7.872 7.872 0 0026.324 2c-1.12 0-2.23.243-3.266.714a8.528 8.528 0 00-2.77 2.034l-1.644 1.807L17 4.748C15.4 2.988 13.228 2 10.965 2 8.7 2 6.53 2.989 4.93 4.748c-1.601 1.758-2.5 4.144-2.5 6.63 0 2.488.899 4.873 2.5 6.632l1.644 1.807 12.07 13.262 12.07-13.262 1.645-1.807a9.487 9.487 0 001.85-3.042c.43-1.138.65-2.358.65-3.59 0-1.23-.22-2.45-.65-3.588a9.486 9.486 0 00-1.85-3.042z"/></svg><svg viewBox="0 0 34 35" id="menu-search" xmlns="http://www.w3.org/2000/svg"><path opacity=".9" d="M32 33l-7.083-7.332L32 33zm-3.158-17.132c0 3.679-1.414 7.206-3.93 9.807-2.518 2.6-5.931 4.062-9.49 4.062-3.56 0-6.974-1.461-9.491-4.062C3.414 23.074 2 19.547 2 15.868c0-3.678 1.414-7.205 3.93-9.806C8.449 3.462 11.863 2 15.422 2c3.56 0 6.973 1.461 9.49 4.062 2.517 2.6 3.931 6.128 3.931 9.806z"/></svg><svg viewBox="0 0 100 100" id="order" xmlns="http://www.w3.org/2000/svg"><circle cx="50" cy="50" r="48.5"/><path d="M51.5 25v24m-.524-1.139l17.479 14.983"/></svg><svg viewBox="0 0 110 76" id="payment" xmlns="http://www.w3.org/2000/svg"><path d="M1.5 1.5h107v73H1.5zm15.5 14h76m-76 43h20"/></svg><svg viewBox="0 0 101 100" id="return" xmlns="http://www.w3.org/2000/svg"><path d="M1.5 1.5h97v97h-97zm30.5 17h35"/><path d="M99 99V86c0-7.6-7.5-11.09-12.5-12-12.5-2.273-21-2-29.5-1m0 0l12-13M57 73l12 13"/></svg><svg viewBox="0 0 23 24" id="row" xmlns="http://www.w3.org/2000/svg"><path d="M0 1.715h23m-23 11h23m-23 10h23"/></svg><svg viewBox="0 0 50 50" id="scroll-top" xmlns="http://www.w3.org/2000/svg"><path d="M25 32V17m0 0l-5 4.138M25 17l5 4.138"/><rect x=".5" y=".5" width="49" height="49" rx=".5"/></svg><svg viewBox="0 0 16 17" id="search" xmlns="http://www.w3.org/2000/svg"><path opacity=".9" d="M15 15.617l-3.306-3.39L15 15.616zm-1.474-7.923c0 1.701-.66 3.333-1.834 4.535a6.19 6.19 0 01-4.429 1.88 6.189 6.189 0 01-4.429-1.88A6.494 6.494 0 011 7.694c0-1.701.66-3.333 1.834-4.536a6.19 6.19 0 014.43-1.878 6.19 6.19 0 014.428 1.878 6.494 6.494 0 011.834 4.536z"/></svg><svg viewBox="0 0 100 100" id="shipping" xmlns="http://www.w3.org/2000/svg"><circle cx="50" cy="50" r="48.5"/><path d="M66.504 62.112c0-8.568-6.624-11.448-13.968-14.04V27.624c4.608.576 7.848 3.024 9.504 7.128l3.24-1.8c-2.232-5.4-7.056-8.424-12.744-9.072V17.4h-3.384v6.48c-7.632.504-13.68 5.544-13.68 13.032 0 8.568 6.336 11.232 13.68 13.824V72.12c-6.696-.36-11.088-3.384-12.744-8.424l-3.312 1.872c2.232 6.192 8.136 9.864 16.056 10.224V82.2h3.384v-6.48c8.208-.792 13.968-6.048 13.968-13.608zm-27.216-25.2c0-5.04 3.96-8.856 9.864-9.36v19.296c-5.688-2.088-9.864-4.248-9.864-9.936zm13.248 35.064V51.888c5.904 2.088 10.08 4.464 10.08 10.224 0 5.184-3.6 9.144-10.08 9.864z" fill-opacity=".8"/></svg><svg viewBox="0 0 46 42" id="slider-arrow" xmlns="http://www.w3.org/2000/svg"><path d="M20.735 3L3 21.242l17.735 18.242M3 21.242h40.538"/></svg><svg viewBox="0 0 30 30" id="twitter" xmlns="http://www.w3.org/2000/svg"><path d="M15 0C6.73 0 0 6.728 0 15s6.73 15 15 15 15-6.728 15-15S23.27 0 15 0zm0 29C7.28 29 1 22.72 1 15S7.28 1 15 1s14 6.28 14 14-6.28 14-14 14z"/><path d="M23.227 10.365c.104-.192.19-.393.256-.601a.501.501 0 00-.731-.583c-.48.285-.998.497-1.54.63a3.573 3.573 0 00-5.964 2.793A8.251 8.251 0 019.883 9.63a.501.501 0 00-.82.065 3.567 3.567 0 00-.061 3.481.588.588 0 00-.2.073.534.534 0 00-.247.45 3.58 3.58 0 001.233 2.7l-.032.032a.5.5 0 00-.101.485 3.569 3.569 0 002.043 2.212 5.737 5.737 0 01-3.187.542.51.51 0 00-.529.329.501.501 0 00.201.59 9.205 9.205 0 004.976 1.458c5.78 0 9.236-4.696 9.236-9.236v-.154a6.664 6.664 0 001.441-1.553.5.5 0 00-.609-.74zm-1.632 1.642a.5.5 0 00-.208.431c.006.124.008.25.008.373 0 4.049-3.08 8.237-8.235 8.237-.92 0-1.833-.154-2.7-.457a6.616 6.616 0 002.848-1.3.5.5 0 00-.3-.893 2.574 2.574 0 01-2.052-1.088c.237-.015.469-.055.694-.116a.5.5 0 00-.034-.973A2.563 2.563 0 019.67 14.44c.248.063.504.1.76.108a.515.515 0 00.491-.347.498.498 0 00-.198-.568 2.569 2.569 0 01-1.07-2.755 9.244 9.244 0 006.145 2.78.509.509 0 00.408-.178.5.5 0 00.103-.434 2.573 2.573 0 014.38-2.345.501.501 0 00.462.149 6.77 6.77 0 00.458-.108 2.37 2.37 0 01-.212.142.5.5 0 00.317.924l.17-.022c-.094.078-.19.152-.29.222z"/></svg></svg>